<?xml version="1.0" encoding="UTF-8" standalone="no"?>
<!-- Created with Inkscape (http://www.inkscape.org/) -->

<svg
   xmlns:dc="http://purl.org/dc/elements/1.1/"
   xmlns:cc="http://creativecommons.org/ns#"
   xmlns:rdf="http://www.w3.org/1999/02/22-rdf-syntax-ns#"
   xmlns:svg="http://www.w3.org/2000/svg"
   xmlns="http://www.w3.org/2000/svg"
   xmlns:sodipodi="http://sodipodi.sourceforge.net/DTD/sodipodi-0.dtd"
   xmlns:inkscape="http://www.inkscape.org/namespaces/inkscape"
   width="86.730606mm"
   height="88.638344mm"
   viewBox="0 0 86.730606 88.638344"
   version="1.1"
   id="svg168"
   inkscape:version="0.92.4 (5da689c313, 2019-01-14)"
   sodipodi:docname="running-person3.svg"
   inkscape:export-filename="C:\code\git\hiit-timer\assets\images\running-person3.png"
   inkscape:export-xdpi="96"
   inkscape:export-ydpi="96">
  <defs
     id="defs162" />
  <sodipodi:namedview
     id="base"
     pagecolor="#ffffff"
     bordercolor="#666666"
     borderopacity="1.0"
     inkscape:pageopacity="0.0"
     inkscape:pageshadow="2"
     inkscape:zoom="0.35"
     inkscape:cx="-254.57651"
     inkscape:cy="-76.780172"
     inkscape:document-units="mm"
     inkscape:current-layer="layer1"
     showgrid="false"
     inkscape:window-width="1920"
     inkscape:window-height="1027"
     inkscape:window-x="-30080"
     inkscape:window-y="-32000"
     inkscape:window-maximized="0"
     fit-margin-top="0"
     fit-margin-left="0"
     fit-margin-right="0"
     fit-margin-bottom="0" />
  <metadata
     id="metadata165">
    <rdf:RDF>
      <cc:Work
         rdf:about="">
        <dc:format>image/svg+xml</dc:format>
        <dc:type
           rdf:resource="http://purl.org/dc/dcmitype/StillImage" />
        <dc:title></dc:title>
      </cc:Work>
    </rdf:RDF>
  </metadata>
  <g
     inkscape:groupmode="layer"
     id="layer4"
     inkscape:label="Layer 2"
     style="display:inline">
    <rect
       style="fill:#000000;stroke-width:0.26458332"
       id="rect237"
       width="200"
       height="200"
       x="-46.869045"
       y="-32.314034" />
  </g>
  <g
     inkscape:label="Layer 1"
     inkscape:groupmode="layer"
     id="layer1"
     transform="translate(-60.175153,-39.502256)"
     style="display:inline">
    <g
       id="g265"
       transform="translate(9.7656528,23.366793)">
      <g
         transform="matrix(-1.4596594,0,0,1.4596594,147.85977,39.502256)"
         id="g234">
        <g
           id="g176">
	<g
   id="g174">
		<circle
   style="fill:#010002"
   cx="19.969"
   cy="6.0079999"
   r="6.0079999"
   id="circle170" />

		<path
   inkscape:connector-curvature="0"
   style="fill:#010002"
   d="m 53.99,37.782 c -6.299,3.684 -10.077,-1.721 -12.923,-6.924 -0.124,-0.501 -0.307,-1.009 -0.57,-1.522 -2.203,-4.285 -4.502,-8.527 -6.908,-12.703 4.699,-1.499 8.996,-0.13 12.375,4.602 2.748,3.85 9.176,0.158 6.396,-3.737 C 45.82,8.339 36.068,6.066 26.305,11.862 c -0.406,0.241 -0.732,0.521 -0.993,0.828 -0.148,0.058 -0.295,0.122 -0.44,0.19 -0.397,0.08 -0.806,0.233 -1.219,0.478 -6.069,3.603 -11.709,2.92 -15.921,-2.98 -2.75,-3.85 -9.176,-0.158 -6.395,3.737 5.374,7.527 12.919,10.392 20.857,7.96 2.491,4.278 4.856,8.632 7.128,13.032 -3.358,1.717 -6.467,3.853 -9.357,6.368 -0.125,0.109 -0.236,0.222 -0.341,0.335 -0.629,0.323 -1.184,0.868 -1.575,1.676 -1.942,4.015 -3.886,8.028 -5.828,12.043 -2.086,4.312 4.626,7.438 6.704,3.146 1.846,-3.814 3.694,-7.633 5.541,-11.445 0.25,-0.141 0.498,-0.309 0.736,-0.518 3.352,-2.918 7.191,-5.283 11.396,-6.748 0.207,-0.072 0.396,-0.158 0.574,-0.254 5.148,6.533 12.33,10.131 20.93,5.105 4.531,-2.648 0.433,-9.689 -4.112,-7.033 z"
   id="path172" />

	</g>

</g>
        <g
           id="g178">
</g>
        <g
           id="g180">
</g>
        <g
           id="g182">
</g>
        <g
           id="g184">
</g>
        <g
           id="g186">
</g>
        <g
           id="g188">
</g>
        <g
           id="g190">
</g>
        <g
           id="g192">
</g>
        <g
           id="g194">
</g>
        <g
           id="g196">
</g>
        <g
           id="g198">
</g>
        <g
           id="g200">
</g>
        <g
           id="g202">
</g>
        <g
           id="g204">
</g>
        <g
           id="g206">
</g>
      </g>
      <path
         transform="matrix(0.26458333,0,0,0.26458333,60.175153,39.502256)"
         inkscape:connector-curvature="0"
         id="path239"
         d="m 238.20667,331.80751 c -4.35121,-1.60961 -11.82496,-13.30326 -23.90738,-37.40617 -9.66753,-19.2855 -19.66947,-36.73473 -22.22656,-38.77608 -15.85866,-12.66014 -39.02778,-27.08852 -51.2087,-31.88979 l -14.15696,-5.58015 -13.95784,13.45357 C 94.364707,249.32921 80.211972,255.83007 56.928855,257.24917 40.982492,258.2211 35.253484,257.21667 21.915999,251.11057 -0.5842645,240.80961 -4.4528958,228.5986 9.7758535,212.79124 c 6.6118025,-7.34536 14.4973215,-8.02697 24.7904965,-2.14286 10.277414,5.8751 31.243062,5.31224 40.968548,-1.09987 9.5437,-6.29227 25.769412,-28.29422 33.169022,-44.97696 2.87646,-6.48511 12.44367,-24.82053 21.26046,-40.74537 8.8168,-15.92484 16.03054,-30.082896 16.03054,-31.462342 0,-4.627431 -19.46362,-6.218403 -33.37041,-2.727723 -10.59023,2.658203 -17.153135,6.97046 -28.403863,18.663185 -15.87928,16.50311 -25.469632,19.24793 -37.589995,10.7585 -10.688505,-7.48653 -8.07372,-17.02651 9.803915,-35.769345 23.365925,-24.496734 41.471351,-32.649048 72.417493,-32.607365 24.07724,0.03243 24.58921,0.185723 59.63998,17.857143 50.42116,25.420659 67.22938,24.619139 96.55342,-4.60427 16.19618,-16.140578 22.10386,-17.694782 33.42129,-8.792499 11.21797,8.824052 9.57937,17.087792 -6.98126,35.207768 -25.44103,27.836528 -60.92971,39.777648 -95.49057,32.130358 -8.48364,-1.87718 -8.76895,-1.53345 -27.85714,33.5607 -10.60714,19.50152 -19.28572,36.10352 -19.28572,36.89334 0,0.78981 4.82143,4.25151 10.71429,7.69265 5.89286,3.44114 19.196,12.67053 29.56255,20.50977 18.07848,13.67105 19.6321,15.85548 38.04121,53.48717 17.41072,35.59079 18.87398,39.93408 15.75792,46.77308 -4.01803,8.81862 -15.71269,13.74374 -24.72136,10.41121 z"
         style="fill:#ffffff;stroke-width:2.85714293" />
      <path
         transform="matrix(0.26458333,0,0,0.26458333,60.175153,39.502256)"
         inkscape:connector-curvature="0"
         id="path241"
         d="m 203.75719,59.046367 c -3.50148,-2.452538 -8.41266,-8.41632 -10.91373,-13.252855 -12.70553,-24.569774 16.61857,-53.8413697 41.20236,-41.1285971 12.35718,6.3901451 17.66339,15.3110761 17.66339,29.6961171 0,17.577283 -11.56721,29.144489 -29.14449,29.144489 -6.84266,0 -15.30604,-2.00662 -18.80753,-4.459154 z"
         style="fill:#ffffff;stroke-width:2.85714293" />
    </g>
  </g>
</svg>
