<?xml version="1.0" encoding="UTF-8" standalone="no"?>
<!-- Created with Inkscape (http://www.inkscape.org/) -->

<svg
   xmlns:dc="http://purl.org/dc/elements/1.1/"
   xmlns:cc="http://creativecommons.org/ns#"
   xmlns:rdf="http://www.w3.org/1999/02/22-rdf-syntax-ns#"
   xmlns:svg="http://www.w3.org/2000/svg"
   xmlns="http://www.w3.org/2000/svg"
   xmlns:sodipodi="http://sodipodi.sourceforge.net/DTD/sodipodi-0.dtd"
   xmlns:inkscape="http://www.inkscape.org/namespaces/inkscape"
   width="86.730606mm"
   height="88.638344mm"
   viewBox="0 0 86.730606 88.638344"
   version="1.1"
   id="svg168"
   inkscape:version="0.92.4 (5da689c313, 2019-01-14)"
   sodipodi:docname="running-person3.svg">
  <defs
     id="defs162" />
  <sodipodi:namedview
     id="base"
     pagecolor="#ffffff"
     bordercolor="#666666"
     borderopacity="1.0"
     inkscape:pageopacity="0.0"
     inkscape:pageshadow="2"
     inkscape:zoom="0.35"
     inkscape:cx="-254.57651"
     inkscape:cy="-78.208743"
     inkscape:document-units="mm"
     inkscape:current-layer="layer1"
     showgrid="false"
     inkscape:window-width="1920"
     inkscape:window-height="1027"
     inkscape:window-x="-8"
     inkscape:window-y="-8"
     inkscape:window-maximized="1"
     fit-margin-top="0"
     fit-margin-left="0"
     fit-margin-right="0"
     fit-margin-bottom="0" />
  <metadata
     id="metadata165">
    <rdf:RDF>
      <cc:Work
         rdf:about="">
        <dc:format>image/svg+xml</dc:format>
        <dc:type
           rdf:resource="http://purl.org/dc/dcmitype/StillImage" />
        <dc:title></dc:title>
      </cc:Work>
    </rdf:RDF>
  </metadata>
  <g
     inkscape:label="Layer 1"
     inkscape:groupmode="layer"
     id="layer1"
     transform="translate(-60.175153,-39.502256)">
    <g
       id="g234"
       transform="matrix(-1.4596594,0,0,1.4596594,147.85977,39.502256)">
      <g
         id="g176">
	<g
   id="g174">
		<circle
   id="circle170"
   r="6.0079999"
   cy="6.0079999"
   cx="19.969"
   style="fill:#010002" />

		<path
   id="path172"
   d="m 53.99,37.782 c -6.299,3.684 -10.077,-1.721 -12.923,-6.924 -0.124,-0.501 -0.307,-1.009 -0.57,-1.522 -2.203,-4.285 -4.502,-8.527 -6.908,-12.703 4.699,-1.499 8.996,-0.13 12.375,4.602 2.748,3.85 9.176,0.158 6.396,-3.737 C 45.82,8.339 36.068,6.066 26.305,11.862 c -0.406,0.241 -0.732,0.521 -0.993,0.828 -0.148,0.058 -0.295,0.122 -0.44,0.19 -0.397,0.08 -0.806,0.233 -1.219,0.478 -6.069,3.603 -11.709,2.92 -15.921,-2.98 -2.75,-3.85 -9.176,-0.158 -6.395,3.737 5.374,7.527 12.919,10.392 20.857,7.96 2.491,4.278 4.856,8.632 7.128,13.032 -3.358,1.717 -6.467,3.853 -9.357,6.368 -0.125,0.109 -0.236,0.222 -0.341,0.335 -0.629,0.323 -1.184,0.868 -1.575,1.676 -1.942,4.015 -3.886,8.028 -5.828,12.043 -2.086,4.312 4.626,7.438 6.704,3.146 1.846,-3.814 3.694,-7.633 5.541,-11.445 0.25,-0.141 0.498,-0.309 0.736,-0.518 3.352,-2.918 7.191,-5.283 11.396,-6.748 0.207,-0.072 0.396,-0.158 0.574,-0.254 5.148,6.533 12.33,10.131 20.93,5.105 4.531,-2.648 0.433,-9.689 -4.112,-7.033 z"
   style="fill:#010002"
   inkscape:connector-curvature="0" />

	</g>

</g>
      <g
         id="g178">
</g>
      <g
         id="g180">
</g>
      <g
         id="g182">
</g>
      <g
         id="g184">
</g>
      <g
         id="g186">
</g>
      <g
         id="g188">
</g>
      <g
         id="g190">
</g>
      <g
         id="g192">
</g>
      <g
         id="g194">
</g>
      <g
         id="g196">
</g>
      <g
         id="g198">
</g>
      <g
         id="g200">
</g>
      <g
         id="g202">
</g>
      <g
         id="g204">
</g>
      <g
         id="g206">
</g>
    </g>
  </g>
</svg>
